<svg width="147" height="50" viewBox="0 0 147 50" fill="none" xmlns="http://www.w3.org/2000/svg">
<rect width="50" height="50" rx="10.625" fill="#198813"/>
<path d="M7.72539 37.5C7.48917 37.5 7.28838 37.4167 7.12303 37.25C6.95768 37.0833 6.875 36.881 6.875 36.6429V13.3929C6.875 13.131 6.94587 12.9167 7.0876 12.75C7.25295 12.5833 7.46555 12.5 7.72539 12.5H10.4537C10.7372 12.5 10.9498 12.5595 11.0915 12.6786C11.2332 12.7738 11.3632 12.9048 11.4813 13.0714L21.6859 29.0714V13.3929C21.6859 13.131 21.7568 12.9167 21.8985 12.75C22.0639 12.5833 22.2765 12.5 22.5363 12.5H25.5127C25.7725 12.5 25.9851 12.5833 26.1505 12.75C26.3158 12.9167 26.3985 13.131 26.3985 13.3929V36.6071C26.3985 36.869 26.3158 37.0833 26.1505 37.25C25.9851 37.4167 25.7843 37.5 25.5481 37.5H22.7844C22.3828 37.5 22.0403 37.3095 21.7568 36.9286L11.5876 21.2857V36.6429C11.5876 36.9048 11.5049 37.119 11.3395 37.2857C11.1742 37.4286 10.9616 37.5 10.7017 37.5H7.72539Z" fill="white"/>
<path d="M29.408 37.5C29.1751 37.5 28.9772 37.4179 28.8142 37.2536C28.6512 37.0893 28.5698 36.8898 28.5698 36.6551V13.35C28.5698 13.0918 28.6512 12.8923 28.8142 12.7515C28.9772 12.5872 29.1751 12.5051 29.408 12.5051H32.2371C32.4932 12.5051 32.6911 12.5872 32.8308 12.7515C32.9938 12.8923 33.0753 13.0918 33.0753 13.35V25.3898L38.943 19.7923C39.0128 19.7454 39.1293 19.6515 39.2922 19.5107C39.432 19.3934 39.5717 19.3112 39.7114 19.2643C39.8511 19.2173 40.0257 19.1939 40.2353 19.1939H43.4834C43.7163 19.1939 43.9026 19.2643 44.0423 19.4051C44.182 19.5459 44.2518 19.7337 44.2518 19.9684C44.2518 20.1796 44.1354 20.3908 43.9026 20.602L36.7077 27.3964L44.7757 36.127C45.0086 36.3617 45.125 36.5612 45.125 36.7255C45.125 36.9602 45.0435 37.148 44.8805 37.2888C44.7408 37.4296 44.5662 37.5 44.3566 37.5H41.0386C40.7126 37.5 40.4681 37.4648 40.3051 37.3944C40.1654 37.3005 39.9791 37.1362 39.7463 36.9015L33.0753 29.8255V36.6551C33.0753 36.8898 32.9938 37.0893 32.8308 37.2536C32.6911 37.4179 32.4932 37.5 32.2371 37.5H29.408Z" fill="white"/>
<path d="M61.672 38C61.432 38 61.228 37.916 61.06 37.748C60.892 37.58 60.808 37.376 60.808 37.136V13.7C60.808 13.436 60.88 13.22 61.024 13.052C61.192 12.884 61.408 12.8 61.672 12.8H64.444C64.732 12.8 64.948 12.86 65.092 12.98C65.236 13.076 65.368 13.208 65.488 13.376L75.856 29.504V13.7C75.856 13.436 75.928 13.22 76.072 13.052C76.24 12.884 76.456 12.8 76.72 12.8H79.744C80.008 12.8 80.224 12.884 80.392 13.052C80.56 13.22 80.644 13.436 80.644 13.7V37.1C80.644 37.364 80.56 37.58 80.392 37.748C80.224 37.916 80.02 38 79.78 38H76.972C76.564 38 76.216 37.808 75.928 37.424L65.596 21.656V37.136C65.596 37.4 65.512 37.616 65.344 37.784C65.176 37.928 64.96 38 64.696 38H61.672ZM84.5491 16.184C84.3091 16.184 84.1051 16.1 83.9371 15.932C83.7691 15.764 83.6851 15.56 83.6851 15.32V12.728C83.6851 12.488 83.7691 12.284 83.9371 12.116C84.1051 11.948 84.3091 11.864 84.5491 11.864H87.8251C88.0651 11.864 88.2691 11.948 88.4371 12.116C88.6291 12.284 88.7251 12.488 88.7251 12.728V15.32C88.7251 15.56 88.6411 15.764 88.4731 15.932C88.3051 16.1 88.0891 16.184 87.8251 16.184H84.5491ZM84.6931 38C84.4531 38 84.2491 37.916 84.0811 37.748C83.9131 37.58 83.8291 37.376 83.8291 37.136V20.144C83.8291 19.904 83.9131 19.7 84.0811 19.532C84.2491 19.364 84.4531 19.28 84.6931 19.28H87.6811C87.9451 19.28 88.1491 19.364 88.2931 19.532C88.4611 19.676 88.5451 19.88 88.5451 20.144V37.136C88.5451 37.376 88.4611 37.58 88.2931 37.748C88.1491 37.916 87.9451 38 87.6811 38H84.6931ZM92.2213 38C91.9813 38 91.7773 37.916 91.6093 37.748C91.4413 37.58 91.3573 37.376 91.3573 37.136V13.304C91.3573 13.04 91.4413 12.836 91.6093 12.692C91.7773 12.524 91.9813 12.44 92.2213 12.44H95.1373C95.4013 12.44 95.6053 12.524 95.7493 12.692C95.9173 12.836 96.0013 13.04 96.0013 13.304V25.616L102.049 19.892C102.121 19.844 102.241 19.748 102.409 19.604C102.553 19.484 102.697 19.4 102.841 19.352C102.985 19.304 103.165 19.28 103.381 19.28H106.729C106.969 19.28 107.161 19.352 107.305 19.496C107.449 19.64 107.521 19.832 107.521 20.072C107.521 20.288 107.401 20.504 107.161 20.72L99.7453 27.668L108.061 36.596C108.301 36.836 108.421 37.04 108.421 37.208C108.421 37.448 108.337 37.64 108.169 37.784C108.025 37.928 107.845 38 107.629 38H104.209C103.873 38 103.621 37.964 103.453 37.892C103.309 37.796 103.117 37.628 102.877 37.388L96.0013 30.152V37.136C96.0013 37.376 95.9173 37.58 95.7493 37.748C95.6053 37.916 95.4013 38 95.1373 38H92.2213ZM110.014 38C109.774 38 109.57 37.916 109.402 37.748C109.234 37.58 109.15 37.376 109.15 37.136V13.304C109.15 13.04 109.234 12.836 109.402 12.692C109.57 12.524 109.774 12.44 110.014 12.44H112.93C113.194 12.44 113.398 12.524 113.542 12.692C113.71 12.836 113.794 13.04 113.794 13.304V25.616L119.842 19.892C119.914 19.844 120.034 19.748 120.202 19.604C120.346 19.484 120.49 19.4 120.634 19.352C120.778 19.304 120.958 19.28 121.174 19.28H124.522C124.762 19.28 124.954 19.352 125.098 19.496C125.242 19.64 125.314 19.832 125.314 20.072C125.314 20.288 125.194 20.504 124.954 20.72L117.538 27.668L125.854 36.596C126.094 36.836 126.214 37.04 126.214 37.208C126.214 37.448 126.13 37.64 125.962 37.784C125.818 37.928 125.638 38 125.422 38H122.002C121.666 38 121.414 37.964 121.246 37.892C121.102 37.796 120.91 37.628 120.67 37.388L113.794 30.152V37.136C113.794 37.376 113.71 37.58 113.542 37.748C113.398 37.916 113.194 38 112.93 38H110.014ZM133.785 38.36C131.577 38.36 129.837 37.64 128.565 36.2C127.293 34.736 126.657 32.756 126.657 30.26V20.144C126.657 19.904 126.741 19.7 126.909 19.532C127.077 19.364 127.281 19.28 127.521 19.28H130.689C130.953 19.28 131.157 19.364 131.301 19.532C131.469 19.676 131.553 19.88 131.553 20.144V30.044C131.553 33.02 132.861 34.508 135.477 34.508C136.725 34.508 137.709 34.112 138.429 33.32C139.173 32.528 139.545 31.436 139.545 30.044V20.144C139.545 19.904 139.629 19.7 139.797 19.532C139.965 19.364 140.169 19.28 140.409 19.28H143.577C143.841 19.28 144.045 19.364 144.189 19.532C144.357 19.676 144.441 19.88 144.441 20.144V37.136C144.441 37.376 144.357 37.58 144.189 37.748C144.045 37.916 143.841 38 143.577 38H140.661C140.421 38 140.217 37.916 140.049 37.748C139.881 37.58 139.797 37.376 139.797 37.136V35.66C138.453 37.46 136.449 38.36 133.785 38.36Z" fill="#198813"/>
</svg>
