<svg width="50" height="50" viewBox="0 0 50 50" fill="none" xmlns="http://www.w3.org/2000/svg">
<rect width="50" height="50" rx="10.625" fill="#198813"/>
<path d="M7.72539 37.5C7.48917 37.5 7.28838 37.4167 7.12303 37.25C6.95768 37.0833 6.875 36.881 6.875 36.6429V13.3929C6.875 13.131 6.94587 12.9167 7.0876 12.75C7.25295 12.5833 7.46555 12.5 7.72539 12.5H10.4537C10.7372 12.5 10.9498 12.5595 11.0915 12.6786C11.2332 12.7738 11.3632 12.9048 11.4813 13.0714L21.6859 29.0714V13.3929C21.6859 13.131 21.7568 12.9167 21.8985 12.75C22.0639 12.5833 22.2765 12.5 22.5363 12.5H25.5127C25.7725 12.5 25.9851 12.5833 26.1505 12.75C26.3158 12.9167 26.3985 13.131 26.3985 13.3929V36.6071C26.3985 36.869 26.3158 37.0833 26.1505 37.25C25.9851 37.4167 25.7843 37.5 25.5481 37.5H22.7844C22.3828 37.5 22.0403 37.3095 21.7568 36.9286L11.5876 21.2857V36.6429C11.5876 36.9048 11.5049 37.119 11.3395 37.2857C11.1742 37.4286 10.9616 37.5 10.7017 37.5H7.72539Z" fill="white"/>
<path d="M29.408 37.5C29.1751 37.5 28.9772 37.4179 28.8142 37.2536C28.6512 37.0893 28.5698 36.8898 28.5698 36.6551V13.35C28.5698 13.0918 28.6512 12.8923 28.8142 12.7515C28.9772 12.5872 29.1751 12.5051 29.408 12.5051H32.2371C32.4932 12.5051 32.6911 12.5872 32.8308 12.7515C32.9938 12.8923 33.0753 13.0918 33.0753 13.35V25.3898L38.943 19.7923C39.0128 19.7454 39.1293 19.6515 39.2922 19.5107C39.4319 19.3934 39.5717 19.3112 39.7114 19.2643C39.8511 19.2173 40.0257 19.1939 40.2353 19.1939H43.4834C43.7163 19.1939 43.9026 19.2643 44.0423 19.4051C44.182 19.5459 44.2518 19.7337 44.2518 19.9684C44.2518 20.1796 44.1354 20.3908 43.9026 20.602L36.7077 27.3964L44.7757 36.127C45.0086 36.3617 45.125 36.5612 45.125 36.7255C45.125 36.9602 45.0435 37.148 44.8805 37.2888C44.7408 37.4296 44.5662 37.5 44.3566 37.5H41.0386C40.7126 37.5 40.4681 37.4648 40.3051 37.3944C40.1654 37.3005 39.9791 37.1362 39.7463 36.9015L33.0753 29.8255V36.6551C33.0753 36.8898 32.9938 37.0893 32.8308 37.2536C32.6911 37.4179 32.4932 37.5 32.2371 37.5H29.408Z" fill="white"/>
</svg>
