<svg width="100" height="100" viewBox="0 0 100 100" fill="#198813" xmlns="http://www.w3.org/2000/svg">
<path fill-rule="evenodd" clip-rule="evenodd" d="M37.5858 38C37.851 38 38.1054 37.8946 38.2929 37.7071L48.2929 27.7071C48.9229 27.0771 50 27.5233 50 28.4142V71.5858C50 72.4767 48.9229 72.9228 48.2929 72.2929L38.2929 62.2929C38.1054 62.1054 37.851 62 37.5858 62H21C20.4477 62 20 61.5523 20 61V39C20 38.4477 20.4477 38 21 38H37.5858Z"/>
<path fill-rule="evenodd" clip-rule="evenodd" d="M71.9382 50.0662C71.7795 42.8723 68.0938 35.4875 61.0359 30.0266C60.5991 29.6887 60.4988 29.0641 60.8236 28.6175L63.1763 25.3825C63.5012 24.9359 64.1276 24.8362 64.5659 25.1722C72.9864 31.628 77.7327 40.6844 77.9368 49.9338C78.1425 59.2585 73.72 68.4296 64.4895 74.9305C64.038 75.2486 63.4157 75.1236 63.1094 74.6641L60.8906 71.3359C60.5842 70.8764 60.71 70.2565 61.16 69.9364C68.7821 64.5159 72.0959 57.2151 71.9382 50.0662Z"/>
<path fill-rule="evenodd" clip-rule="evenodd" d="M89.375 50C89.375 35.887 83.3874 22.0191 71.7151 14.0769C71.2585 13.7662 71.1219 13.1482 71.4201 12.6834L73.5799 9.31661C73.8781 8.85175 74.4987 8.71651 74.9565 9.0254C88.6709 18.2782 95.375 34.2625 95.375 50C95.375 65.7375 88.6709 81.7218 74.9565 90.9746C74.4987 91.2835 73.8781 91.1482 73.5799 90.6834L71.4201 87.3166C71.1219 86.8518 71.2585 86.2338 71.7151 85.9231C83.3874 77.9809 89.375 64.113 89.375 50Z"/>
</svg>
