<svg width="100" height="100" viewBox="0 0 100 100" fill="#198813" xmlns="http://www.w3.org/2000/svg">
<path d="M20 38C20 29.5 26.5 20 38 20L62 20C72 20 80 28 80 38L80 39L70 39C70 39 70 42.5 70 38C70 33.5 66.5 30 62 30C57.5 30 42.5 30 38 30C33.5 30 30 33.5 30 38C30 42.5 30 41 30 41L20 41L20 38Z"/>
<path d="M74.5 54L60.2106 39L88.7894 39L74.5 54Z"/>
<path d="M79 61C79 69.5 72.5 79 61 79L37 79C27 79 19 71 19 61L19 60L29 60C29 60 29 56.5 29 61C29 65.5 32.5 69 37 69C41.5 69 56.5 69 61 69C65.5 69 69 65.5 69 61C69 56.5 69 58 69 58L79 58L79 61Z"/>
<path d="M24.5 45L38.7894 60H10.2106L24.5 45Z"/>
</svg>
