<svg width="100" height="100" viewBox="0 0 100 100" fill="#198813" xmlns="http://www.w3.org/2000/svg">
<rect x="81.5937" y="36.1014" width="5.02197" height="34.2892" rx="1" transform="rotate(45 81.5937 36.1014)"/>
<rect x="85.1447" y="60.3475" width="5.02197" height="34.2892" rx="1" transform="rotate(135 85.1447 60.3475)"/>
<path fill-rule="evenodd" clip-rule="evenodd" d="M37.5858 38C37.851 38 38.1054 37.8946 38.2929 37.7071L48.2929 27.7071C48.9229 27.0771 50 27.5233 50 28.4142V71.5858C50 72.4767 48.9229 72.9228 48.2929 72.2929L38.2929 62.2929C38.1054 62.1053 37.851 62 37.5858 62H21C20.4477 62 20 61.5523 20 61V39C20 38.4477 20.4477 38 21 38L37.5858 38Z"/>
</svg>
